<svg width="608" height="578" viewBox="0 0 608 578" fill="none" xmlns="http://www.w3.org/2000/svg">
<g filter="url(#filter0_d_3_207)">
<path d="M205.504 42.7302C207.272 41.6588 209.174 40.8314 211.158 40.2702L212.314 34.6245L221.75 34.4523L223.112 40.0611C225.112 40.56 227.038 41.3252 228.839 42.3366L233.606 39.1755L240.403 45.8175L237.448 50.7375C238.508 52.5211 239.326 54.4407 239.88 56.4447L245.462 57.6132L245.632 67.158L240.087 68.5233C239.596 70.5472 238.839 72.4956 237.837 74.3166L240.963 79.1505L234.396 86.0139L229.532 83.025C227.769 84.097 225.871 84.9244 223.89 85.485L222.674 91.1307L213.238 91.3029L211.876 85.6941C209.88 85.1951 207.958 84.4299 206.161 83.4186L201.382 86.5797L194.56 79.95L197.515 75.03C196.456 73.2417 195.638 71.3182 195.083 69.3105L189.501 68.0805L189.331 58.5357L194.876 57.1581C195.369 55.1348 196.126 53.1867 197.126 51.3648L194.001 46.5309L200.64 39.7413L205.504 42.7302ZM210.538 55.4484C209.146 56.9055 208.212 58.7474 207.855 60.7413C207.498 62.7352 207.733 64.7914 208.531 66.6501C209.329 68.5087 210.654 70.0862 212.339 71.1832C214.023 72.2802 215.991 72.8473 217.994 72.8129C219.997 72.7785 221.945 72.1441 223.592 70.9899C225.238 69.8358 226.509 68.2137 227.245 66.3287C227.98 64.4437 228.146 62.3806 227.722 60.4001C227.298 58.4197 226.303 56.6109 224.863 55.2024C223.905 54.2611 222.772 53.5205 221.53 53.0232C220.288 52.5259 218.961 52.2817 217.626 52.3045C216.29 52.3274 214.972 52.6169 213.748 53.1564C212.523 53.6959 211.416 54.4748 210.49 55.4484H210.538Z" fill="#E0E0E0"/>
<path d="M207.693 359.504C208.711 358.883 209.807 358.404 210.952 358.078L211.62 354.818L217.068 354.72L217.846 357.955C219.002 358.237 220.114 358.676 221.154 359.258L223.902 357.438L227.818 361.263L226.176 364.08C226.79 365.11 227.264 366.219 227.587 367.376L230.809 368.053L230.906 373.563L227.708 374.351C227.429 375.519 226.995 376.644 226.419 377.696L228.219 380.476L224.437 384.436L221.628 382.714C220.608 383.334 219.512 383.818 218.369 384.154L217.664 387.45L212.216 387.548L211.438 384.314C210.283 384.031 209.17 383.592 208.131 383.01L205.382 384.83L201.467 381.005L203.169 378.164C202.557 377.131 202.078 376.023 201.747 374.867L198.536 374.191L198.439 368.68L201.637 367.893C201.916 366.724 202.35 365.599 202.926 364.547L201.126 361.768L204.908 357.807L207.717 359.529L207.693 359.504ZM210.599 366.884C209.794 367.726 209.253 368.79 209.046 369.942C208.839 371.094 208.974 372.282 209.435 373.356C209.896 374.43 210.662 375.342 211.635 375.976C212.609 376.609 213.746 376.936 214.904 376.916C216.061 376.895 217.187 376.527 218.137 375.859C219.088 375.191 219.822 374.253 220.245 373.163C220.668 372.073 220.762 370.881 220.515 369.737C220.267 368.593 219.69 367.549 218.856 366.737C218.307 366.195 217.659 365.767 216.947 365.479C216.235 365.19 215.474 365.046 214.707 365.055C213.94 365.065 213.183 365.227 212.478 365.532C211.773 365.837 211.135 366.28 210.599 366.835V366.884Z" fill="#E0E0E0"/>
<path d="M89.1085 73.0989C89.8042 72.6733 90.5524 72.3425 91.3337 72.1149L91.7958 69.8886H95.5046L96.064 72.0288C96.852 72.2313 97.6119 72.533 98.3257 72.9267L100.198 71.6967L102.874 74.3043L101.658 76.2477C102.078 76.9514 102.405 77.7083 102.63 78.4986L104.831 78.966V82.656L102.643 83.1972C102.452 83.9956 102.158 84.765 101.767 85.485L102.983 87.3792L100.405 90.0852L98.4838 88.8552C97.7881 89.2808 97.0399 89.6116 96.2585 89.8392L95.7965 92.0655H92.1485L91.6134 89.8515C90.8241 89.6589 90.0635 89.3611 89.3517 88.9659L87.479 90.1959L84.8038 87.576L86.0198 85.6449C85.5991 84.9411 85.272 84.1843 85.047 83.394L82.8461 82.9266L82.7853 79.2366L84.9619 78.6954C85.1621 77.8983 85.4603 77.1297 85.8496 76.4076L84.6336 74.5134L87.2115 71.8074L89.1328 73.0374L89.1085 73.0989ZM91.0905 78.105C90.5428 78.679 90.1756 79.4044 90.0353 80.1894C89.8951 80.9745 89.9881 81.784 90.3026 82.5156C90.6171 83.2472 91.139 83.8681 91.8022 84.2997C92.4655 84.7314 93.2404 84.9544 94.029 84.9406C94.8176 84.9269 95.5844 84.677 96.2326 84.2225C96.8808 83.7679 97.3812 83.1292 97.6706 82.3871C97.9599 81.645 98.0253 80.8327 97.8584 80.053C97.6915 79.2733 97.2998 78.5612 96.7328 78.0066C96.356 77.6381 95.9112 77.3483 95.4237 77.1538C94.9361 76.9593 94.4155 76.8639 93.8915 76.873C93.3675 76.8822 92.8504 76.9957 92.3698 77.2071C91.8892 77.4185 91.4545 77.7236 91.0905 78.105Z" fill="#E0E0E0"/>
<path d="M270.633 65.19C272.005 64.3514 273.481 63.702 275.023 63.2589L275.923 58.8678L283.219 58.7325L284.276 63.099C285.836 63.4846 287.337 64.0803 288.739 64.8702L292.387 62.4102L297.774 67.65L295.488 71.4384C296.32 72.8288 296.962 74.3266 297.397 75.891L301.75 76.8012L301.872 84.1812L297.567 85.2513C297.176 86.8366 296.579 88.3627 295.792 89.79L298.224 93.5538L293.129 98.892L289.335 96.5673C287.962 97.4033 286.486 98.0526 284.945 98.4984L284.033 102.889L276.737 103.025L275.679 98.6583C274.104 98.2818 272.586 97.6901 271.168 96.8994L267.52 99.3594L262.23 94.2057L264.529 90.3681C263.701 88.9754 263.059 87.4783 262.62 85.9155L258.278 85.0053L258.145 77.6253L262.461 76.5552C262.843 74.9819 263.432 73.4677 264.212 72.0534L261.78 68.2896L266.876 62.9514L270.633 65.19ZM274.548 75.03C273.467 76.165 272.742 77.599 272.466 79.1507C272.19 80.7024 272.375 82.302 272.998 83.7472C273.621 85.1924 274.654 86.4183 275.965 87.2698C277.277 88.1213 278.809 88.5602 280.367 88.531C281.926 88.5017 283.441 88.0056 284.72 87.1055C286 86.2053 286.987 84.9415 287.556 83.4739C288.126 82.0063 288.252 80.4009 287.919 78.8606C287.587 77.3204 286.81 75.9145 285.687 74.8209C284.936 74.0999 284.053 73.5358 283.086 73.1609C282.12 72.7861 281.089 72.6078 280.055 72.6364C279.02 72.6649 278.001 72.8998 277.056 73.3274C276.111 73.755 275.259 74.367 274.548 75.1284V75.03Z" fill="#EBEBEB"/>
<path d="M464.767 248.583C466.526 247.511 468.42 246.684 470.397 246.123L471.613 240.477L481.037 240.305L482.399 245.914C484.401 246.407 486.328 247.173 488.127 248.189L492.881 245.028L499.667 251.658L496.724 256.578C497.777 258.365 498.594 260.284 499.156 262.285L504.737 263.515L504.908 273.048L499.363 274.425C498.875 276.446 498.118 278.391 497.113 280.206L500.238 285.028L493.696 291.817L488.832 288.829C487.068 289.899 485.17 290.726 483.19 291.289L481.974 296.934L472.55 297.094L471.188 291.51C469.191 291.011 467.27 290.246 465.473 289.234L460.706 292.396L453.921 285.766L456.876 280.846C455.816 279.067 454.998 277.151 454.444 275.151L448.862 273.921L448.704 264.45L454.237 263.072C454.73 261.049 455.486 259.101 456.486 257.279L453.361 252.47L459.916 245.606L464.78 248.595L464.767 248.583ZM469.789 261.289C468.401 262.746 467.471 264.586 467.116 266.578C466.762 268.569 466.999 270.623 467.798 272.478C468.597 274.333 469.921 275.907 471.604 277.001C473.287 278.095 475.253 278.659 477.254 278.623C479.254 278.587 481.199 277.952 482.842 276.798C484.486 275.644 485.754 274.024 486.487 272.141C487.22 270.258 487.384 268.197 486.96 266.22C486.535 264.242 485.541 262.436 484.102 261.031C483.146 260.095 482.018 259.359 480.781 258.866C479.543 258.372 478.222 258.13 476.893 258.154C475.563 258.178 474.251 258.468 473.032 259.005C471.813 259.543 470.711 260.319 469.789 261.289Z" fill="#E0E0E0"/>
<path d="M531.392 63.0006C531.399 59.0277 530.5 55.1066 528.765 51.5424C527.03 47.9782 524.505 44.8669 521.388 42.4504C518.27 40.034 514.643 38.3776 510.79 37.61C506.936 36.8424 502.959 36.9844 499.169 38.0248C495.378 39.0653 491.876 40.9762 488.934 43.6089C485.993 46.2416 483.691 49.5252 482.209 53.2043C480.726 56.8833 480.103 60.8587 480.387 64.8213C480.671 68.7838 481.855 72.6266 483.846 76.0509L483.919 76.1493C484.892 77.8221 486.12 79.0152 487.361 80.7618L502.208 100.639C502.639 101.203 503.191 101.66 503.824 101.974C504.456 102.288 505.151 102.452 505.856 102.452C506.561 102.452 507.256 102.288 507.888 101.974C508.521 101.66 509.073 101.203 509.504 100.639L524.096 81.0939C525.422 79.5249 526.66 77.8824 527.805 76.1739L527.866 76.1001C530.181 72.1326 531.399 67.608 531.392 63.0006ZM505.856 74.2428C503.634 74.2404 501.463 73.5717 499.617 72.3214C497.771 71.0711 496.333 69.2953 495.484 67.2183C494.636 65.1414 494.415 62.8566 494.85 60.6528C495.285 58.449 496.356 56.4251 497.928 54.8368C499.499 53.2486 501.501 52.1674 503.681 51.7299C505.86 51.2923 508.118 51.5181 510.171 52.3787C512.223 53.2393 513.977 54.696 515.211 56.5647C516.445 58.4334 517.104 60.6303 517.104 62.8776C517.104 64.3711 516.813 65.85 516.248 67.2297C515.682 68.6094 514.853 69.8628 513.809 70.9183C512.764 71.9739 511.524 72.8108 510.16 73.3812C508.795 73.9516 507.333 74.2444 505.856 74.2428Z" fill="#E0E0E0"/>
<path d="M81.8003 434.743C84.3881 432.924 86.3908 430.375 87.5602 427.415C88.7296 424.454 89.0143 421.212 88.3789 418.089C86.713 409.246 78.6509 403.329 70.5158 404.916C62.3808 406.503 57.0182 414.94 58.6841 423.796C59.2282 426.964 60.689 429.897 62.8817 432.225C65.0745 434.552 67.9005 436.169 71.0022 436.871C48.8467 444.842 54.72 469.737 54.72 469.737L108.747 459.356C108.747 459.356 105.099 433.747 81.8003 434.743Z" fill="#EBEBEB"/>
<path d="M147.258 540.868L136.192 538.088C136.192 538.088 133.894 547.535 124.141 545.284C122.256 544.885 120.54 543.902 119.232 542.472C117.925 541.041 117.09 539.233 116.845 537.301C116.615 535.682 116.768 534.031 117.29 532.483C117.812 530.936 118.689 529.535 119.849 528.396C122.5 525.714 127.34 523.882 134.441 527.092L140.63 501.717L129.626 498.974L125.978 513.845C125.978 513.845 109.574 514.029 105.391 531.225C101.378 547.682 115.034 555.136 121.284 556.686C126.075 557.879 142.625 560.769 147.258 540.868Z" fill="#EBEBEB"/>
<path d="M130.759 493.72L141.916 496.501L144.485 485.955L133.327 483.174L130.759 493.72Z" fill="#EBEBEB"/>
<path d="M70.528 269.616H95.9302L93.6928 281.141H47.9347L49.7466 271.978L77.289 250.145C84.0986 244.635 86.1779 241.412 86.1779 237.39C86.1779 233.368 83.1501 230.662 77.289 230.662C74.8151 230.699 72.3803 231.292 70.1599 232.395C67.9394 233.499 65.9887 235.087 64.448 237.046L55.0362 230.145C59.9002 223.417 68.935 218.965 79.3562 218.965C92.1363 218.965 100.502 225.865 100.502 235.385C100.502 242.63 97.2314 248.743 86.6035 257.045L70.528 269.616Z" fill="#263238"/>
<path d="M156.451 268.312H146.528L144.023 281.141H130.38L132.97 268.312H100.417L102.229 258.792L137.809 220.01H153.082L119.934 256.775H135.815L138.065 245.336H151.1L148.851 256.775H158.785L156.451 268.312Z" fill="#263238"/>
<path d="M196.335 207.612H208.945L164.573 289.874H152L196.335 207.612Z" fill="#263238"/>
<path d="M253.925 220.01L252.113 229.186L219.828 281.141H204.288L235.272 231.535H215.682L213.688 241.498H201.26L205.504 220.01H253.925Z" fill="#263238"/>
<path d="M42.2803 329.369L45.8189 322.58C48.9727 324.618 52.6314 325.714 56.3738 325.741C59.8272 325.741 61.8214 324.646 61.8214 322.9C61.8214 318.582 46.4026 320.969 46.4026 310.883C46.4026 303.958 52.2515 299.419 61.639 299.419C65.6205 299.285 69.5643 300.237 73.0573 302.174L69.7984 308.914C67.1815 307.285 64.1646 306.433 61.0918 306.454C57.3709 306.454 55.3766 307.832 55.3766 309.579C55.3766 313.982 70.7955 311.461 70.7955 321.362C70.7955 328.238 64.8128 332.776 55.5226 332.776C50.0749 332.801 45.1379 331.337 42.2803 329.369Z" fill="#263238"/>
<path d="M86.7859 307.082L85.7523 312.494H99.8458L98.496 319.271H84.3904L83.2473 325.151H99.8944L98.4352 332.161H72.96L79.3562 300.12H104.199L102.788 307.143L86.7859 307.082Z" fill="#263238"/>
<path d="M127.352 322.531L132.751 332.161H123.363L118.645 323.638H114.122L112.444 332.161H103.469L109.805 300.12H123.363C131.474 300.12 136.143 303.933 136.143 310.354C136.207 313.079 135.38 315.75 133.79 317.951C132.201 320.153 129.938 321.763 127.352 322.531ZM122.099 307.217H117.38L115.52 316.614H120.87C124.822 316.614 127.133 314.695 127.133 311.165C127.084 308.459 125.175 307.217 122.099 307.217Z" fill="#263238"/>
<path d="M175.481 300.12L155.648 332.161H146.808L139.536 300.12H148.741L153.277 321.03L166.239 300.12H175.481Z" fill="#263238"/>
<path d="M177.378 300.12H186.364L179.968 332.161H170.994L177.378 300.12Z" fill="#263238"/>
<path d="M187.763 318.681C187.763 307.537 195.873 299.419 207.656 299.419C213.505 299.419 218.272 301.584 220.534 305.471L214.016 310.698C213.288 309.505 212.255 308.533 211.027 307.883C209.799 307.234 208.42 306.932 207.036 307.008C200.871 307.008 196.785 311.817 196.785 318.139C196.785 322.457 199.692 325.347 204.543 325.347C206.025 325.354 207.489 325.027 208.829 324.388C210.169 323.75 211.351 322.817 212.289 321.657L217.591 326.922C214.016 331.288 209.347 332.887 203.68 332.887C193.976 332.801 187.763 327.069 187.763 318.681Z" fill="#263238"/>
<path d="M233.63 307.082L232.584 312.494H246.678L245.364 319.271H231.222L230.092 325.151H246.726L245.279 332.161H219.853L226.176 300.12H251.019L249.62 307.143L233.63 307.082Z" fill="#263238"/>
<path d="M76.7904 201.917H59.0733C59.0733 176.972 69.0566 151.487 86.4576 131.93C104.771 111.377 128.543 100.061 153.338 100.061C204.008 100.061 239.406 137.477 239.406 191.081H221.725C221.725 147.379 194.256 118.019 153.374 118.019C113.295 117.982 76.7904 157.981 76.7904 201.917Z" fill="#5ED8FF"/>
<path d="M86.5062 196.935C89.3395 196.935 91.6378 197.218 91.6256 197.477C91.6134 197.735 89.3274 197.932 86.5062 197.932C83.6851 197.932 81.3747 197.698 81.3747 197.39C81.3747 197.083 83.6851 196.886 86.5062 196.935Z" fill="#263238"/>
<path d="M98.7392 157.649C101.171 159.224 102.813 160.835 102.545 161.265C102.278 161.696 100.113 160.822 97.6813 159.334C95.2493 157.846 93.632 156.21 93.8874 155.718C94.1427 155.226 96.368 156.087 98.7392 157.649Z" fill="#263238"/>
<path d="M129.382 130.577C130.538 133.197 131.109 135.497 130.598 135.694C130.088 135.89 128.787 133.984 127.546 131.413C126.306 128.843 125.734 126.493 126.33 126.296C126.926 126.1 128.239 127.92 129.382 130.577Z" fill="#263238"/>
<path d="M169.754 127.354C169.048 130.134 168.088 132.274 167.613 132.176C167.139 132.077 167.236 129.716 167.844 126.899C168.452 124.082 169.401 121.979 169.985 122.09C170.568 122.2 170.459 124.587 169.754 127.354Z" fill="#263238"/>
<path d="M202.732 150.798C200.372 152.372 198.244 153.332 197.965 152.938C197.685 152.545 199.327 150.847 201.613 149.162C203.899 147.477 206.039 146.53 206.38 147.022C206.72 147.514 205.091 149.211 202.732 150.798Z" fill="#263238"/>
<path d="M213.59 189.42C210.769 189.42 208.471 189.199 208.471 188.953C208.471 188.707 210.757 188.461 213.59 188.424C216.424 188.387 218.71 188.596 218.722 188.891C218.734 189.186 216.448 189.42 213.59 189.42Z" fill="#263238"/>
<path d="M148.534 194.758C147.652 194.764 146.794 194.465 146.102 193.91L116.323 170.539C115.497 169.887 114.961 168.93 114.834 167.878C114.706 166.826 114.997 165.766 115.642 164.931C116.287 164.096 117.233 163.554 118.273 163.425C119.313 163.296 120.361 163.589 121.187 164.242L148.352 185.546L185.866 150.7C186.632 149.98 187.649 149.598 188.693 149.637C189.737 149.677 190.724 150.134 191.435 150.909C192.146 151.683 192.524 152.712 192.485 153.769C192.446 154.825 191.994 155.823 191.228 156.542L151.258 193.688C150.518 194.383 149.544 194.765 148.534 194.758Z" fill="#5ED8FF"/>
<path d="M168.732 73.7139H134.587C134.056 73.7139 133.626 74.1489 133.626 74.6856V87.1947C133.626 87.7314 134.056 88.1664 134.587 88.1664H168.732C169.263 88.1664 169.693 87.7314 169.693 87.1947V74.6856C169.693 74.1489 169.263 73.7139 168.732 73.7139Z" fill="#5ED8FF"/>
<path d="M160.974 80.9463H142.333V98.0433H160.974V80.9463Z" fill="#5ED8FF"/>
<path d="M74.7115 117.944L60.7086 135.486C60.1643 136.168 60.2695 137.167 60.9436 137.717L70.5179 145.537C71.1919 146.088 72.1795 145.981 72.7238 145.299L86.7267 127.758C87.2709 127.076 87.1657 126.077 86.4917 125.527L76.9174 117.707C76.2434 117.156 75.2558 117.263 74.7115 117.944Z" fill="#5ED8FF"/>
<path d="M168.732 88.1664C168.732 88.3755 161.084 88.5354 151.708 88.5354C142.333 88.5354 134.684 88.3755 134.684 88.1664C134.684 87.9573 142.321 87.7974 151.708 87.7974C161.096 87.7974 168.732 87.9696 168.732 88.1664Z" fill="#263238"/>
<path d="M74.3949 142.286C74.2003 142.508 71.6224 140.515 68.4365 138.092C65.2506 135.669 62.6605 133.701 62.8186 133.455C62.9766 133.209 65.8342 134.808 69.0566 137.256C72.279 139.703 74.5773 142.077 74.3949 142.286Z" fill="#263238"/>
<path d="M77.3619 137.871C77.1674 138.092 74.5895 136.1 71.4035 133.676C68.2176 131.253 65.6154 129.285 65.7735 129.039C65.9315 128.793 68.8013 130.392 72.0237 132.852C75.2461 135.312 77.5443 137.662 77.3619 137.871Z" fill="#263238"/>
<path d="M80.9978 134.168C80.8154 134.39 78.2375 132.397 75.0515 129.974C71.8656 127.551 69.312 125.583 69.4215 125.337C69.5309 125.091 72.4493 126.69 75.6595 129.15C78.8698 131.61 81.1923 133.959 80.9978 134.168Z" fill="#263238"/>
<path d="M84.5242 129.753C84.3418 129.974 81.7517 127.982 78.5658 125.558C75.3798 123.135 72.7898 121.167 72.96 120.921C73.1302 120.675 75.9878 122.274 79.1981 124.734C82.4083 127.194 84.7066 129.544 84.5242 129.753Z" fill="#263238"/>
<path d="M237.372 123.489L222.299 106.879C221.713 106.234 220.721 106.191 220.083 106.783L211.017 115.201C210.379 115.794 210.336 116.797 210.922 117.443L225.995 134.052C226.581 134.698 227.573 134.741 228.211 134.148L237.277 125.731C237.915 125.138 237.958 124.134 237.372 123.489Z" fill="#5ED8FF"/>
<path d="M213.615 119.581C213.432 119.359 215.755 117.121 218.6 114.242C221.446 111.364 223.744 109.113 223.963 109.322C224.182 109.532 222.2 112.151 219.318 115.005C216.436 117.859 213.785 119.79 213.615 119.581Z" fill="#263238"/>
<path d="M217.494 123.197C217.299 122.975 219.634 120.737 222.467 117.859C225.3 114.98 227.623 112.73 227.842 112.939C228.061 113.148 226.067 115.768 223.197 118.621C220.327 121.475 217.664 123.406 217.494 123.197Z" fill="#263238"/>
<path d="M220.57 127.391C220.376 127.17 222.71 124.931 225.544 122.053C228.377 119.175 230.7 116.924 230.918 117.133C231.137 117.342 229.143 119.95 226.261 122.803C223.379 125.657 220.74 127.6 220.57 127.391Z" fill="#263238"/>
<path d="M224.364 131.61C224.17 131.389 226.504 129.15 229.338 126.272C232.171 123.394 234.493 121.143 234.712 121.352C234.931 121.561 232.937 124.181 230.055 127.034C227.173 129.888 224.534 131.782 224.364 131.61Z" fill="#263238"/>
<path d="M138.417 88.1541C138.138 88.1541 137.907 84.9561 137.907 81.0324C137.907 77.1087 138.138 73.8984 138.417 73.8984C138.697 73.8984 138.94 77.0964 138.94 81.0324C138.94 84.9684 138.709 88.1541 138.417 88.1541Z" fill="#263238"/>
<path d="M145.105 88.1541C144.826 88.1541 144.595 84.9561 144.595 81.0324C144.595 77.1087 144.826 73.8984 145.105 73.8984C145.385 73.8984 145.616 77.0964 145.616 81.0324C145.616 84.9684 145.385 88.1541 145.105 88.1541Z" fill="#263238"/>
<path d="M151.781 88.1541C151.501 88.1541 151.27 84.9561 151.27 81.0324C151.27 77.1087 151.501 73.8984 151.781 73.8984C152.061 73.8984 152.292 77.0964 152.292 81.0324C152.292 84.9684 152.073 88.1541 151.781 88.1541Z" fill="#263238"/>
<path d="M158.469 88.1541C158.177 88.1541 157.958 84.9561 157.958 81.0324C157.958 77.1087 158.177 73.8984 158.469 73.8984C158.761 73.8984 158.98 77.0964 158.98 81.0324C158.98 84.9684 158.749 88.1541 158.469 88.1541Z" fill="#263238"/>
<path d="M165.145 88.1541C164.865 88.1541 164.634 84.9561 164.634 81.0324C164.634 77.1087 164.865 73.8984 165.145 73.8984C165.425 73.8984 165.656 77.0964 165.656 81.0324C165.656 84.9684 165.376 88.1541 165.145 88.1541Z" fill="#263238"/>
<path d="M155.762 195.788C159.248 192.262 159.248 186.546 155.762 183.02C152.277 179.494 146.625 179.494 143.14 183.02C139.654 186.546 139.654 192.262 143.14 195.788C146.625 199.313 152.277 199.314 155.762 195.788Z" fill="#5ED8FF"/>
<path d="M158.372 189.42C158.287 189.42 158.299 188.621 157.922 187.255C157.381 185.35 156.231 183.68 154.651 182.507C153.385 181.556 151.882 180.98 150.31 180.842C148.739 180.704 147.161 181.011 145.751 181.728C144.342 182.445 143.158 183.544 142.33 184.902C141.503 186.26 141.064 187.825 141.064 189.42C141.064 191.015 141.503 192.58 142.33 193.938C143.158 195.296 144.342 196.395 145.751 197.112C147.161 197.829 148.739 198.136 150.31 197.998C151.882 197.86 153.385 197.284 154.651 196.333C156.228 195.157 157.378 193.488 157.922 191.585C158.299 190.219 158.287 189.42 158.372 189.42C158.457 189.42 158.372 189.617 158.372 189.998C158.391 190.561 158.334 191.124 158.202 191.671C157.765 193.724 156.629 195.557 154.991 196.849C153.768 197.821 152.321 198.463 150.786 198.717C149.251 198.971 147.677 198.828 146.212 198.301C144.397 197.65 142.827 196.447 141.716 194.857C140.605 193.267 140.009 191.367 140.009 189.42C140.009 187.473 140.605 185.574 141.716 183.983C142.827 182.393 144.397 181.19 146.212 180.539C147.677 180.014 149.249 179.871 150.784 180.122C152.318 180.374 153.765 181.012 154.991 181.979C156.628 183.276 157.764 185.113 158.202 187.169C158.334 187.716 158.391 188.279 158.372 188.842C158.433 189.199 158.408 189.42 158.372 189.42Z" fill="#263238"/>
<path d="M463.624 220.342L478.873 217.882C488.867 226.039 501.517 230.119 514.335 229.321C527.152 228.522 539.211 222.902 548.14 213.566C557.069 204.23 562.223 191.854 562.588 178.869C562.953 165.884 558.503 153.231 550.113 143.397C541.723 133.563 529.999 127.259 517.247 125.725C504.495 124.191 491.637 127.537 481.2 135.107C470.764 142.676 463.504 153.92 460.848 166.629C458.192 179.338 460.331 192.592 466.847 203.786L463.624 220.342Z" fill="white"/>
<path d="M463.624 220.342C463.624 220.342 463.624 219.998 463.795 219.297L464.378 216.148C464.901 213.319 465.679 209.174 466.689 203.762C466.691 203.744 466.698 203.727 466.707 203.712C466.717 203.697 466.73 203.685 466.745 203.676C466.76 203.666 466.777 203.66 466.795 203.658C466.812 203.656 466.83 203.658 466.847 203.663C466.858 203.657 466.87 203.654 466.883 203.654C466.896 203.654 466.909 203.657 466.92 203.663L466.701 203.836C462.349 196.406 459.889 188 459.539 179.371C459.431 176.686 459.532 173.996 459.843 171.327C460.204 168.47 460.781 165.645 461.569 162.877C464.441 152.842 470.226 143.91 478.174 137.239C486.122 130.568 495.868 126.464 506.148 125.46C514.214 124.69 522.346 125.856 529.882 128.863C537.419 131.87 544.148 136.634 549.523 142.766L551.59 145.226C552.234 146.087 552.806 146.985 553.438 147.846C554.639 149.596 555.731 151.42 556.709 153.307C557.244 154.217 557.585 155.226 558.035 156.173C558.484 157.12 558.947 158.067 559.251 159.076C559.971 161.028 560.568 163.025 561.038 165.054C562.909 172.938 562.971 181.151 561.22 189.063C558.875 199.352 553.499 208.68 545.803 215.813C538.106 222.946 528.451 227.549 518.113 229.014C515.273 229.404 512.407 229.572 509.54 229.518C506.879 229.39 504.228 229.103 501.6 228.657C493.234 227.081 485.391 223.411 478.788 217.981H478.897L467.491 219.715L464.585 220.145L463.624 220.281L464.634 220.096L467.564 219.604L478.849 217.71H478.958C485.554 223.051 493.36 226.648 501.673 228.177C504.28 228.617 506.912 228.892 509.553 229.001C512.399 229.048 515.245 228.871 518.065 228.473C528.278 226.978 537.807 222.396 545.401 215.329C552.996 208.261 558.302 199.037 560.625 188.867C562.342 181.045 562.272 172.93 560.418 165.14C559.942 163.139 559.353 161.168 558.655 159.236C558.351 158.24 557.84 157.329 557.439 156.37C557.037 155.411 556.648 154.439 556.125 153.541C555.162 151.677 554.082 149.877 552.891 148.154C552.283 147.293 551.675 146.407 551.067 145.558L549.024 143.098C543.715 137.04 537.07 132.332 529.627 129.356C522.185 126.379 514.153 125.217 506.184 125.964C499.129 126.669 492.296 128.847 486.115 132.359C479.934 135.871 474.541 140.642 470.276 146.37C466.559 151.381 463.781 157.038 462.08 163.061C461.294 165.801 460.713 168.597 460.341 171.425C460.019 174.073 459.905 176.742 460.001 179.408C460.298 187.976 462.683 196.338 466.944 203.749C466.967 203.775 466.98 203.808 466.98 203.842C466.98 203.876 466.967 203.909 466.944 203.934C466.92 203.954 466.89 203.965 466.859 203.965C466.828 203.965 466.798 203.954 466.774 203.934L466.993 203.86C465.923 209.211 465.096 213.319 464.561 216.16C464.281 217.55 464.062 218.62 463.916 219.334C463.77 220.047 463.624 220.342 463.624 220.342Z" fill="#263238"/>
<path d="M526.723 178.94C526.72 177.896 527.024 176.874 527.597 176.004C528.169 175.135 528.984 174.456 529.937 174.055C530.891 173.655 531.941 173.549 532.954 173.752C533.967 173.955 534.898 174.458 535.628 175.197C536.358 175.936 536.855 176.877 537.056 177.902C537.257 178.926 537.153 179.988 536.756 180.953C536.36 181.918 535.69 182.742 534.83 183.321C533.97 183.899 532.96 184.207 531.927 184.205C530.548 184.202 529.226 183.646 528.251 182.659C527.275 181.673 526.726 180.336 526.723 178.94Z" fill="#263238"/>
<path d="M505.856 178.94C505.854 177.896 506.158 176.875 506.729 176.005C507.301 175.136 508.115 174.458 509.068 174.057C510.021 173.655 511.07 173.549 512.083 173.751C513.096 173.953 514.026 174.455 514.757 175.193C515.488 175.93 515.986 176.87 516.188 177.894C516.39 178.918 516.288 179.98 515.893 180.945C515.499 181.909 514.83 182.734 513.972 183.315C513.114 183.895 512.105 184.205 511.073 184.205C509.691 184.205 508.366 183.651 507.388 182.664C506.41 181.677 505.859 180.338 505.856 178.94Z" fill="#263238"/>
<path d="M485.05 181.573C484.534 180.669 484.295 179.631 484.362 178.589C484.43 177.548 484.801 176.55 485.429 175.722C486.057 174.894 486.914 174.273 487.891 173.937C488.868 173.602 489.921 173.567 490.918 173.837C491.914 174.107 492.81 174.67 493.49 175.455C494.17 176.239 494.605 177.21 494.74 178.245C494.875 179.28 494.703 180.332 494.246 181.268C493.79 182.204 493.07 182.982 492.176 183.504C490.977 184.2 489.554 184.388 488.219 184.026C486.884 183.664 485.744 182.782 485.05 181.573Z" fill="#263238"/>
<path d="M120.737 367.77C117.539 366.232 112.152 363.022 108.82 361.768C105.526 360.342 101.852 360.091 98.3987 361.054C96.441 361.718 94.4832 363.305 94.471 365.396L107.543 375.15L120.737 371.632V367.77Z" fill="#FF9A6C"/>
<path d="M106.436 367.635C106.436 367.635 82.9555 362.481 79.04 360.451C75.1245 358.422 54.72 348.09 51.303 348.09C47.8861 348.09 44.9677 349.025 44.3475 352.469L48.8102 355.974L49.3818 357.77L57.0182 361.792L58.368 364.326L77.824 374.83C77.824 374.83 98.2285 385.31 101.633 385.9C105.038 386.491 122.038 387.93 129.309 394.19L158.493 382.063C158.493 382.063 150.067 369.959 143.573 366.97C137.785 364.314 128.069 364.314 121.272 367.13L106.436 367.635Z" fill="#FFBF9D"/>
<path d="M125.965 387.45C125.965 387.45 163.114 469.393 169.097 485.85C169.097 485.85 210.623 478.937 212.046 455.629L158.542 381.829L125.965 387.45Z" fill="#FFBF9D"/>
<path d="M91.4675 369.492C91.4675 369.492 91.3216 369.492 91.0663 369.492C90.6864 369.453 90.3115 369.375 89.9475 369.258C88.6158 368.848 87.3219 368.321 86.0807 367.684C84.4999 366.909 82.6637 365.888 80.6451 364.744C79.6359 364.178 78.5779 363.576 77.4714 362.998C76.3648 362.42 75.161 361.915 73.9328 361.374C71.6588 360.332 69.3091 359.469 66.9043 358.791C64.7034 358.238 62.5875 357.819 60.9946 358.361C60.3767 358.611 59.8161 358.987 59.3476 359.465C58.8791 359.943 58.5126 360.513 58.2707 361.14C58.0911 361.619 57.884 362.088 57.6506 362.543C57.6506 362.543 57.6506 362.395 57.7114 362.149C57.7927 361.772 57.9024 361.402 58.0397 361.042C58.2546 360.468 58.545 359.926 58.9031 359.431C59.3763 358.753 60.0359 358.231 60.8 357.93C61.7426 357.611 62.7442 357.51 63.7306 357.635C64.8336 357.745 65.927 357.938 67.0016 358.213C69.4577 358.868 71.857 359.723 74.176 360.771C75.392 361.313 76.608 361.817 77.7389 362.42C78.8698 363.022 79.9155 363.65 80.9248 364.228C82.9312 365.396 84.7309 366.454 86.2752 367.266C87.4718 367.927 88.7109 368.506 89.984 369C90.9325 369.357 91.4675 369.431 91.4675 369.492Z" fill="#FF9A6C"/>
<path d="M69.0688 357.709C67.924 357.475 66.8156 357.086 65.7734 356.552C63.2655 355.355 60.6867 354.316 58.0518 353.441C56.6101 353.027 55.1034 352.898 53.6134 353.059C53.0189 353.077 52.4343 353.218 51.895 353.471C51.3557 353.725 50.873 354.087 50.4762 354.535C50.0006 355.202 49.6881 355.973 49.5642 356.786C49.5531 357.102 49.4915 357.413 49.3818 357.709C49.3249 357.396 49.3249 357.075 49.3818 356.761C49.4272 355.884 49.7044 355.034 50.1843 354.301C50.5565 353.789 51.0388 353.368 51.5949 353.071C52.2309 352.766 52.9133 352.57 53.6134 352.493C55.1818 352.294 56.7739 352.415 58.295 352.85C60.9673 353.717 63.5559 354.829 66.0288 356.171C67.0687 356.628 68.0835 357.141 69.0688 357.709Z" fill="#FF9A6C"/>
<path d="M127.68 365.31C127.68 365.31 127.352 365.507 126.732 365.728C125.842 366.053 124.937 366.332 124.02 366.565C121.001 367.359 117.907 367.825 114.79 367.954C111.675 368.091 108.553 367.901 105.476 367.389C104.26 367.18 103.36 366.971 102.716 366.786C102.371 366.734 102.038 366.621 101.731 366.454C101.731 366.355 103.19 366.638 105.549 366.934C108.606 367.316 111.689 367.444 114.766 367.315C117.846 367.154 120.908 366.743 123.923 366.085C126.172 365.642 127.595 365.224 127.68 365.31Z" fill="#FF9A6C"/>
<path d="M473.559 316.664L419.52 305.347L406.144 295.2L334.765 309.124C333.622 311.239 322.058 327.574 322.058 327.574L293.944 337.229C281.995 340.405 271.33 347.287 263.446 356.909C255.95 366.274 249.809 376.669 245.206 387.782C232.56 417.806 214.308 452.492 214.308 452.492L202.865 433.846L154.639 456.822C154.639 456.822 182.886 514.423 192.237 522.652C202.634 531.791 226.541 532.848 243.066 515.801C253.025 505.518 281.808 464.879 287.803 454.706L296.704 497.24L304.888 545.788L291.658 579.207H484.758L476.769 547.621C476.769 547.621 484.637 465.297 486.813 449.971C491.933 413.821 473.559 316.664 473.559 316.664Z" fill="#5ED8FF"/>
<path d="M473.559 316.664C473.559 316.664 512.228 327.635 520.74 366.515C525.896 390.07 543.406 457.216 549.571 512.492C553.219 545.357 553.122 575.726 553.219 579.207H493.878L468.732 327.635L473.559 316.664Z" fill="#5ED8FF"/>
<path d="M374.382 350.046C374.382 350.046 374.382 350.193 374.224 350.452L373.677 351.583C373.19 352.579 372.461 354.043 371.67 355.901C369.956 359.591 367.937 365.064 364.678 371.177L364.52 371.485L364.253 371.251C360.24 367.795 355.887 363.637 351.388 359.148C343.423 351.153 336.443 343.711 331.287 338.434L325.146 332.198L323.456 330.513C323.25 330.327 323.063 330.121 322.897 329.898C323.132 330.048 323.348 330.226 323.541 330.427L325.292 332.026C326.8 333.428 328.94 335.507 331.579 338.115C336.82 343.318 343.86 350.71 351.801 358.693C356.3 363.182 360.629 367.303 364.593 370.82L364.156 370.894C367.439 364.867 369.53 359.418 371.33 355.753C372.218 353.896 372.959 352.469 373.494 351.497C373.738 351.067 373.944 350.698 374.115 350.415C374.19 350.282 374.28 350.159 374.382 350.046Z" fill="black"/>
<path d="M420.274 306.737C420.27 307.028 420.233 307.317 420.164 307.598C420.043 308.213 419.897 309.025 419.715 310.058C419.277 312.174 418.499 315.224 417.501 318.939C415.398 326.319 411.993 336.516 407.773 347.524C405.548 353.354 403.359 358.865 401.316 363.748L401.158 364.129L400.854 363.859C395.346 358.939 390.409 355.064 387.065 352.186C385.387 350.747 384.074 349.591 383.186 348.779L382.201 347.844C381.97 347.623 381.86 347.512 381.873 347.5C382.013 347.574 382.143 347.664 382.262 347.77L383.307 348.644L387.284 351.915C390.701 354.72 395.674 358.52 401.243 363.416L400.781 363.526C402.788 358.606 404.964 353.121 407.178 347.303C411.348 336.233 414.814 326.208 417.015 318.816C418.109 315.126 418.912 312.1 419.447 309.997C419.678 309.001 419.873 308.201 420.019 307.537C420.084 307.264 420.169 306.997 420.274 306.737Z" fill="black"/>
<path d="M295.184 491.791C295.133 491.707 295.096 491.616 295.075 491.52L294.819 490.684C294.6 489.864 294.296 488.782 293.907 487.437C293.494 486.035 293.092 484.3 292.606 482.283C292.12 480.266 291.597 477.953 291.074 475.395C288.384 462.05 286.491 448.553 285.407 434.977C284.033 419.073 283.729 404.621 283.802 394.178C283.802 388.951 283.936 384.719 284.082 381.804C284.155 380.378 284.204 379.258 284.24 378.434C284.24 378.09 284.24 377.795 284.301 377.561C284.288 377.463 284.288 377.364 284.301 377.266C284.311 377.368 284.311 377.471 284.301 377.573V378.446C284.301 379.271 284.301 380.39 284.301 381.804C284.301 384.732 284.204 388.951 284.228 394.178C284.228 404.609 284.641 419.049 286.015 434.916C287.109 448.471 288.936 461.956 291.487 475.309C291.986 477.867 292.448 480.229 292.922 482.197C293.396 484.165 293.749 485.973 294.138 487.375L294.941 490.647L295.123 491.496C295.184 491.693 295.196 491.791 295.184 491.791Z" fill="black"/>
<path d="M476.769 359.787C476.841 359.894 476.899 360.009 476.939 360.132C477.049 360.39 477.195 360.722 477.365 361.14C477.754 362.075 478.277 363.391 478.958 365.052C479.299 365.913 479.7 366.848 480.089 367.893L481.244 371.337C481.658 372.567 482.095 373.908 482.57 375.31C483.044 376.712 483.36 378.25 483.786 379.836C487.434 392.493 489.258 410.808 488.212 430.844C487.166 450.881 484.831 468.974 483.348 481.963C482.606 488.458 481.998 493.734 481.572 497.424C481.366 499.208 481.195 500.622 481.074 501.619L480.928 502.713C480.919 502.839 480.895 502.963 480.855 503.082C480.839 502.96 480.839 502.836 480.855 502.713L480.94 501.606C481.037 500.598 481.171 499.146 481.329 497.4C481.67 493.71 482.205 488.445 482.898 481.914C484.223 468.851 486.461 450.82 487.531 430.82C488.601 410.82 486.801 392.604 483.311 379.947L482.095 375.421L480.879 371.46C480.49 370.23 480.125 369.061 479.785 368.004C479.444 366.946 479.031 365.999 478.703 365.138C478.07 363.453 477.584 362.137 477.219 361.189C477.073 360.759 476.952 360.427 476.854 360.156C476.807 360.038 476.779 359.914 476.769 359.787Z" fill="black"/>
<path d="M214.624 494.374C214.454 494.374 214.247 485.001 214.174 473.464C214.101 461.927 214.174 452.554 214.356 452.554C214.539 452.554 214.733 461.927 214.806 473.464C214.879 485.001 214.806 494.374 214.624 494.374Z" fill="black"/>
<path d="M390.093 551.138V550.622C390.093 550.253 390.19 549.761 390.263 549.121C390.433 547.768 390.664 545.837 390.968 543.352C391.126 542.122 391.297 540.708 391.491 539.195C391.686 537.682 391.832 536.009 392.014 534.275C392.367 530.708 392.853 526.661 393.23 522.16C393.412 519.921 393.595 517.559 393.802 515.112C394.008 512.664 394.106 510.106 394.264 507.461C394.628 502.172 394.787 496.502 394.993 490.549C395.261 478.63 395.224 465.518 394.616 451.779C394.008 438.04 392.768 424.977 391.394 413.132C390.628 407.216 389.959 401.595 389.096 396.367C388.694 393.748 388.342 391.214 387.88 388.791C387.418 386.368 387.041 384.043 386.664 381.817C385.922 377.376 385.071 373.391 384.378 369.873C384.025 368.114 383.709 366.478 383.405 364.953C383.101 363.428 382.772 362.087 382.493 360.857L381.277 355.187C381.155 354.56 381.046 354.068 380.973 353.711C380.9 353.354 380.888 353.194 380.888 353.194C380.949 353.354 380.998 353.519 381.034 353.686L381.411 355.15L382.76 360.808L383.721 364.892C384.037 366.392 384.378 368.016 384.755 369.812C385.472 373.317 386.36 377.302 387.126 381.743C387.531 383.965 387.936 386.29 388.342 388.717C388.78 391.177 389.132 393.637 389.558 396.294C390.433 401.533 391.126 407.155 391.917 413.071C393.315 424.928 394.507 438.003 395.188 451.754C395.869 465.506 395.82 478.642 395.516 490.573C395.285 496.539 395.115 502.209 394.726 507.498C394.556 510.142 394.434 512.701 394.227 515.161C394.02 517.621 393.802 519.97 393.607 522.221C393.267 526.723 392.744 530.831 392.391 534.324C392.184 536.108 391.99 537.768 391.82 539.244C391.649 540.72 391.418 542.147 391.236 543.402C390.883 545.862 390.604 547.805 390.421 549.146L390.19 550.646C390.172 550.813 390.139 550.977 390.093 551.138Z" fill="black"/>
<path d="M415.799 418.372H416.042L416.808 418.286L419.787 417.942L431.181 416.712L471.735 412.456H472.039V412.763C472.343 425.174 472.708 439.221 473.085 454.116V454.251L473 454.337L468.136 459.663L450.406 478.827L450.248 478.999L450.042 478.888L420.164 463.882L420.031 463.821V463.71C418.73 449.995 417.599 438.655 416.906 430.697C416.541 426.785 416.261 423.71 416.067 421.582C415.981 420.562 415.908 419.774 415.86 419.196C415.811 418.618 415.86 418.409 415.86 418.409C415.86 418.409 415.86 418.704 415.969 419.245C416.079 419.787 416.127 420.635 416.249 421.705C416.468 423.858 416.796 426.945 417.222 430.881C418.036 438.778 419.192 450.057 420.602 463.698L420.456 463.489L450.37 478.408L450.017 478.47L467.71 459.233L472.574 453.919L472.489 454.141C472.136 439.245 471.796 425.211 471.504 412.788L471.82 413.059L431.388 416.97L419.921 418.052L416.869 418.323L416.079 418.397L415.799 418.372Z" fill="black"/>
<path d="M472.112 427.031C471.423 427.225 470.719 427.361 470.008 427.437C468.646 427.659 466.676 427.942 464.232 428.261C459.368 428.889 452.571 429.614 445.092 430.34L425.928 432.234L420.128 432.849C419.424 432.964 418.713 433.017 418 433.009C418.689 432.816 419.393 432.68 420.104 432.603C421.466 432.382 423.436 432.099 425.88 431.779C430.744 431.152 437.541 430.426 445.032 429.7L464.184 427.806L469.984 427.191C470.688 427.077 471.399 427.023 472.112 427.031Z" fill="black"/>
<g opacity="0.3">
<path d="M483.859 475.407L485.901 500.536C490.413 479.011 497.502 455.875 496.396 433.907C495.289 411.939 493.246 390.919 481.013 371.029C486.331 386.004 488.771 401.869 488.2 417.769C487.081 443.476 483.859 475.407 483.859 475.407Z" fill="black"/>
</g>
<path d="M206.574 428.63C205.917 427.116 204.755 425.884 203.291 425.149C201.588 424.559 199.74 425.395 198.123 426.207L154.006 448.421C151.1 449.885 147.926 451.619 146.856 454.694C145.458 458.63 148.072 462.787 150.504 466.17C154.566 471.816 159.43 477.966 166.312 478.765L204.264 452.443C208.897 451.754 211.779 446.527 211.56 441.791C211.341 437.056 208.933 432.739 206.574 428.63Z" fill="#5ED8FF"/>
<path d="M211.365 444.719C211.253 444.877 211.122 445.022 210.976 445.149L209.76 446.293C208.714 447.277 207.17 448.667 205.236 450.34C201.357 453.698 195.849 458.163 189.428 462.714C183.008 467.265 177.135 471.016 172.672 473.55C170.459 474.842 168.647 475.85 167.382 476.514L165.923 477.265C165.583 477.437 165.4 477.511 165.388 477.486C165.529 477.352 165.689 477.24 165.862 477.154L167.261 476.293L172.441 473.156C176.806 470.5 182.753 466.687 189.1 462.148C195.448 457.609 200.993 453.218 204.908 449.959L209.565 446.059L210.781 445.014C211.195 444.817 211.353 444.694 211.365 444.719Z" fill="black"/>
<g opacity="0.3">
<path d="M419.702 309.554C414.51 326.995 407.238 346.725 401.098 363.674C395.869 359.185 388.549 353.244 383.308 348.742C387.818 357.793 393.233 366.354 399.468 374.289C400.198 375.211 401.171 376.22 402.301 375.999C403.432 375.777 403.943 374.596 404.332 373.539L413.902 347.918C418.377 335.938 422.694 321.965 419.702 309.554Z" fill="black"/>
</g>
<path d="M337.622 119.802C353.43 115.202 368.217 119.802 382.797 127.453C397.377 135.103 409.135 147.735 416.748 162.434C424.773 177.919 428.324 195.964 425.418 213.196C422.511 230.428 412.881 246.664 398.459 256.246C378.748 269.382 351.582 268.693 331.287 256.529C310.992 244.364 297.628 221.941 294.09 198.337C291.658 182.077 293.628 164.931 301.13 150.367C308.633 135.804 321.9 123.996 337.61 119.79" fill="#263238"/>
<path d="M389.521 169.851C386.469 163.91 386.603 156.862 384.937 150.367C381.289 136.087 368.399 125.767 354.391 121.647C341.368 117.797 326.301 120.688 311.831 127.305C301.933 131.844 292.922 138.805 287.012 148.03C283.147 154.214 280.799 161.242 280.165 168.53C279.53 175.817 280.627 183.153 283.364 189.924L355.583 170.712C363.098 175.632 370.795 180.712 379.489 183.012C382.019 183.803 384.706 183.926 387.296 183.368C388.581 183.061 389.752 182.386 390.668 181.424C391.584 180.463 392.208 179.254 392.464 177.944C392.768 175.017 390.847 172.446 389.521 169.851Z" fill="#263238"/>
<path d="M406.752 299.382L388.111 166.763C387.284 160.49 384.463 154.094 378.225 154.39L312.561 147.994C291.986 148.953 282.331 176.284 284.155 196.984C286.186 220.035 289.554 248.091 294.795 264.721C305.338 298.14 331.956 298.484 331.956 298.484C331.956 298.484 333.573 305.126 335.604 317.549L378.164 346.184L406.752 299.382Z" fill="#FFBF9D"/>
<path d="M300.024 222.212C300.187 223.359 300.787 224.396 301.696 225.101C302.605 225.807 303.75 226.125 304.888 225.988C305.447 225.948 305.993 225.795 306.493 225.538C306.992 225.281 307.436 224.925 307.798 224.492C308.159 224.058 308.432 223.556 308.598 223.014C308.764 222.473 308.822 221.903 308.767 221.338C308.6 220.192 308 219.156 307.092 218.449C306.185 217.742 305.041 217.42 303.903 217.55C303.343 217.593 302.798 217.749 302.299 218.008C301.8 218.266 301.357 218.623 300.996 219.057C300.635 219.491 300.363 219.994 300.196 220.536C300.029 221.077 299.97 221.647 300.024 222.212Z" fill="#263238"/>
<path d="M292.363 210.588C292.983 211.08 295.901 208.128 300.583 207.403C305.265 206.677 309.034 208.534 309.46 207.87C309.667 207.575 308.961 206.64 307.307 205.754C305.07 204.656 302.553 204.278 300.097 204.672C297.664 205.037 295.41 206.179 293.664 207.931C292.387 209.26 292.059 210.33 292.363 210.588Z" fill="#263238"/>
<path d="M343.228 215.102C343.389 216.252 343.987 217.292 344.897 218C345.806 218.708 346.953 219.028 348.092 218.891C348.651 218.851 349.197 218.698 349.697 218.441C350.197 218.184 350.641 217.828 351.002 217.395C351.364 216.961 351.636 216.459 351.802 215.917C351.969 215.376 352.026 214.806 351.971 214.241C351.811 213.092 351.212 212.052 350.303 211.344C349.394 210.636 348.247 210.316 347.107 210.453C346.548 210.495 346.004 210.649 345.505 210.906C345.006 211.164 344.562 211.519 344.201 211.953C343.84 212.386 343.568 212.887 343.4 213.428C343.233 213.969 343.175 214.538 343.228 215.102Z" fill="#263238"/>
<path d="M336.832 204.328C337.452 204.82 340.383 201.868 345.052 201.142C349.722 200.416 353.503 202.274 353.929 201.609C354.136 201.314 353.43 200.379 351.777 199.494C349.535 198.393 347.014 198.015 344.554 198.411C342.09 198.778 339.809 199.939 338.048 201.72C336.832 202.95 336.504 204.18 336.832 204.328Z" fill="#263238"/>
<path d="M326.764 242.052C326.764 241.781 323.76 241.72 318.969 241.843C317.753 241.843 316.537 241.843 316.257 241.043C315.978 240.244 316.148 238.841 316.513 237.353C317.194 234.262 317.911 231.019 318.665 227.624C321.583 213.774 323.529 202.47 322.957 202.36C322.386 202.249 319.589 213.43 316.659 227.206C315.965 230.613 315.297 233.872 314.676 236.984C314.433 238.423 313.886 240.096 314.774 241.806C315.007 242.208 315.329 242.549 315.716 242.803C316.102 243.057 316.541 243.217 316.999 243.269C317.685 243.363 318.38 243.363 319.066 243.269C323.845 242.753 326.788 242.31 326.764 242.052Z" fill="#263238"/>
<path d="M331.968 298.484C347.956 296.261 363.019 289.588 375.476 279.21C375.476 279.21 364.861 306.086 334.132 308.792L331.968 298.484Z" fill="#FF9A6C"/>
<path d="M330.46 253.146C331.178 251.877 332.203 250.814 333.439 250.057C334.675 249.299 336.081 248.872 337.525 248.817C338.575 248.755 339.626 248.91 340.614 249.272C341.603 249.633 342.509 250.194 343.277 250.92C344.02 251.613 344.536 252.52 344.753 253.519C344.971 254.517 344.88 255.559 344.493 256.504C343.508 258.484 340.93 259.309 338.607 258.964C336.281 258.516 334.065 257.605 332.09 256.283C331.501 255.978 330.977 255.56 330.545 255.053C330.333 254.819 330.195 254.528 330.147 254.214C330.1 253.901 330.145 253.581 330.278 253.294" fill="#FF9A6C"/>
<path d="M341.015 243.196C340.237 243.269 341.015 248.411 337.209 252.716C333.403 257.021 327.943 257.304 328.004 258.017C328.004 258.361 329.366 258.829 331.652 258.546C334.632 258.128 337.37 256.66 339.386 254.401C341.319 252.236 342.344 249.395 342.243 246.48C342.109 244.303 341.355 243.122 341.015 243.196Z" fill="#263238"/>
<path d="M335.494 190.207C336.151 191.437 340.723 190.096 346.305 189.912C351.886 189.727 356.556 190.564 357.103 189.297C357.346 188.694 356.397 187.612 354.415 186.64C351.799 185.485 348.957 184.946 346.105 185.065C343.252 185.185 340.464 185.959 337.951 187.329C336.066 188.461 335.203 189.629 335.494 190.207Z" fill="#263238"/>
<path d="M290.624 189.715C291.609 190.662 294.661 189.051 298.528 188.399C302.395 187.747 305.824 188.018 306.359 186.775C306.614 186.173 305.933 185.189 304.353 184.389C302.244 183.471 299.915 183.205 297.657 183.626C295.4 184.046 293.316 185.134 291.67 186.751C290.442 188.067 290.162 189.248 290.624 189.715Z" fill="#263238"/>
<path d="M400.149 158.498C391.297 139.507 359.267 115.927 338.936 120.146L308.791 144.451C310.601 149.966 313.85 154.885 318.195 158.686C322.54 162.488 327.82 165.032 333.476 166.05C339.495 167.059 346.548 166.603 350.658 171.179C354.768 175.755 353.783 183.627 357.759 188.485C363.268 195.226 375.622 193.208 380.073 200.711C382.031 203.983 381.8 208.239 383.794 211.486C386.469 215.803 398.739 220.096 403.25 217.907C407.761 215.717 406.74 207.55 407.725 203.036C409.415 195.349 407.81 191.695 406.399 187.71C403.104 178.264 404.381 167.551 400.149 158.498Z" fill="#263238"/>
<path d="M389.789 223.86C389.412 221.302 391.418 214.844 393.85 214.02C400.344 211.954 412.419 210.637 415.106 227.71C418.754 251.08 394.872 249.961 394.714 249.296C394.556 248.632 391.102 232.642 389.789 223.86Z" fill="#FFBF9D"/>
<path d="M400.368 239.333C400.465 239.235 400.818 239.555 401.584 239.752C402.605 240.018 403.688 239.868 404.6 239.333C406.886 238.042 408.321 233.798 407.773 229.567C407.516 227.559 406.818 225.634 405.731 223.934C405.401 223.239 404.908 222.636 404.296 222.177C403.684 221.718 402.97 221.418 402.216 221.302C401.735 221.251 401.252 221.374 400.852 221.649C400.451 221.923 400.16 222.332 400.028 222.802C399.821 223.503 400.028 223.946 399.918 224.032C399.809 224.118 399.371 223.725 399.395 222.728C399.435 222.132 399.676 221.568 400.076 221.129C400.632 220.538 401.397 220.193 402.204 220.17C404.004 220.01 405.852 221.4 406.971 223.11C408.273 224.974 409.108 227.131 409.403 229.395C409.999 234.118 408.309 238.903 405.123 240.465C404.534 240.748 403.89 240.895 403.238 240.895C402.586 240.895 401.942 240.748 401.353 240.465C400.502 239.85 400.295 239.383 400.368 239.333Z" fill="#FF9A6C"/>
<path d="M314.725 136.591C313.667 146.431 300.692 160.269 295.269 168.424C284.848 183.983 283 188.965 286.672 220.65C279.765 210.355 274.22 200.121 273.296 187.71C272.372 175.3 275.46 162.421 282.951 152.557C290.442 142.692 302.492 136.198 314.786 136.567" fill="#263238"/>
<path d="M369.822 103.222C374.686 97.7973 381.715 94.2672 389.011 92.4222C399.407 89.79 410.826 90.5034 420.286 95.079C429.747 99.6546 437.067 108.24 438.976 118.08C439.915 123.135 439.473 128.353 437.699 133.173C435.925 137.992 432.886 142.232 428.908 145.435C434.317 150.74 440.912 154.647 448.132 156.825C446.163 159.814 442.527 161.56 438.854 162.188C435.162 162.655 431.426 162.63 427.74 162.114C430.256 165.917 434.021 168.696 438.368 169.961C432.384 171.359 426.142 171.151 420.262 169.359C414.51 167.595 409.006 165.095 403.882 161.917C386.092 151.474 376.279 142.323 364.265 126.247C362.696 119.31 364.922 108.658 369.822 103.222Z" fill="#263238"/>
<path d="M408.175 152.52C395.115 133.221 378.492 122.902 363.45 119.691L408.175 152.52Z" fill="#263238"/>
<path d="M363.45 119.691C364.14 119.97 364.852 120.189 365.578 120.343C366.952 120.737 368.934 121.339 371.318 122.262C377.523 124.7 383.357 128.013 388.646 132.102C393.936 136.181 398.757 140.847 403.019 146.013C404.624 148.018 405.925 149.703 406.764 150.81C407.182 151.438 407.654 152.026 408.175 152.569C407.823 151.896 407.416 151.255 406.959 150.65C406.18 149.42 404.94 147.76 403.372 145.73C399.217 140.409 394.43 135.626 389.12 131.487C383.767 127.357 377.821 124.08 371.488 121.77C369.578 121.083 367.629 120.512 365.651 120.06C364.928 119.878 364.192 119.755 363.45 119.691Z" fill="#455A64"/>
<path d="M423.74 168.965L423.448 169.063L422.597 169.408C421.867 169.728 420.773 170.146 419.338 170.638C415.282 172.011 411.076 172.879 406.813 173.221C400.492 173.697 394.137 173.283 387.928 171.991C380.324 170.375 372.89 168.032 365.724 164.992C358.063 161.831 350.84 158.584 344.408 155.398C338.694 152.602 333.195 149.379 327.955 145.755C324.433 143.301 321.107 140.57 318.008 137.588C316.89 136.542 316.087 135.669 315.576 135.128L314.932 134.476C314.786 134.341 314.713 134.267 314.701 134.279C314.689 134.291 314.701 134.365 314.883 134.525L315.479 135.226C316.002 135.841 316.78 136.739 317.911 137.821C320.958 140.891 324.257 143.693 327.773 146.198C332.994 149.908 338.495 153.198 344.225 156.038C350.67 159.273 357.881 162.544 365.554 165.718C372.764 168.766 380.249 171.101 387.904 172.692C394.174 173.958 400.59 174.314 406.959 173.75C411.216 173.356 415.408 172.422 419.435 170.97C420.858 170.416 421.94 169.961 422.657 169.592L423.472 169.186C423.654 169.027 423.752 168.977 423.74 168.965Z" fill="#455A64"/>
<path d="M354.841 284.794L352.64 280.44C352.798 280.354 368.071 272.433 373.944 267.439C387.782 255.68 400.502 236.898 400.636 236.689L404.648 239.456C404.113 240.256 391.43 258.989 377.069 271.19C370.746 276.529 355.485 284.462 354.841 284.794Z" fill="#455A64"/>
<path d="M366.211 271.203C366.211 271.203 345.344 280.624 345.344 282.715C345.344 284.806 348.652 288.988 351.132 288.779C353.613 288.57 360.787 284.487 362.076 282.814C363.365 281.141 365.651 276.836 368.156 274.745L366.211 271.203Z" fill="#263238"/>
<path d="M404.478 207.87L399.614 207.636C399.79 193.449 397.375 179.35 392.488 166.05C381.933 138.547 361.638 123.787 332.187 122.164C329.508 122.045 326.824 122.23 324.186 122.717L326.314 120.675C327.345 119.691 328.544 118.903 329.852 118.351C331.646 117.592 333.595 117.288 335.531 117.465C372.716 120.724 389.521 144.636 397.073 164.414C402.217 178.301 404.729 193.043 404.478 207.87Z" fill="#455A64"/>
<path d="M402.046 252.605C410.555 252.605 417.453 242.572 417.453 230.194C417.453 217.817 410.555 207.784 402.046 207.784C393.537 207.784 386.639 217.817 386.639 230.194C386.639 242.572 393.537 252.605 402.046 252.605Z" fill="#455A64"/>
<path d="M417.453 230.194C417.438 230.093 417.438 229.989 417.453 229.887C417.453 229.641 417.453 229.346 417.38 228.977C417.325 227.815 417.208 226.657 417.027 225.508C416.399 221.271 414.768 217.249 412.273 213.786C411.432 212.667 410.461 211.655 409.379 210.773C408.2 209.834 406.872 209.106 405.451 208.62C403.93 208.122 402.319 207.966 400.733 208.165C399.054 208.42 397.447 209.028 396.015 209.949C392.98 212.085 390.636 215.08 389.278 218.559C387.759 222.263 386.978 226.234 386.978 230.244C386.978 234.254 387.759 238.224 389.278 241.929C390.635 245.408 392.979 248.404 396.015 250.539C397.447 251.46 399.054 252.067 400.733 252.322C402.32 252.515 403.929 252.36 405.451 251.867C406.872 251.381 408.2 250.653 409.379 249.715C410.458 248.829 411.429 247.818 412.273 246.701C414.768 243.238 416.399 239.217 417.027 234.979C417.207 233.83 417.325 232.672 417.38 231.511C417.38 231.142 417.38 230.846 417.453 230.6C417.437 230.499 417.437 230.395 417.453 230.293C417.472 230.394 417.472 230.499 417.453 230.6V231.511C417.44 232.683 417.359 233.853 417.21 235.016C416.666 239.329 415.069 243.438 412.565 246.972C411.713 248.13 410.725 249.18 409.622 250.096C408.406 251.089 407.027 251.859 405.548 252.371C403.954 252.901 402.265 253.073 400.599 252.876C398.839 252.62 397.153 251.992 395.65 251.031C392.504 248.866 390.069 245.799 388.658 242.224C387.093 238.445 386.287 234.39 386.287 230.293C386.287 226.196 387.093 222.14 388.658 218.362C390.069 214.787 392.504 211.72 395.65 209.555C397.153 208.594 398.839 207.965 400.599 207.71C402.265 207.513 403.954 207.685 405.548 208.214C407.027 208.726 408.406 209.496 409.622 210.49C410.728 211.403 411.716 212.453 412.565 213.614C415.073 217.146 416.67 221.255 417.21 225.57C417.358 226.728 417.439 227.895 417.453 229.063V229.985C417.461 230.055 417.461 230.125 417.453 230.194Z" fill="#263238"/>
<path d="M404.417 243.208C409.837 243.208 414.23 236.82 414.23 228.94C414.23 221.06 409.837 214.672 404.417 214.672C398.998 214.672 394.604 221.06 394.604 228.94C394.604 236.82 398.998 243.208 404.417 243.208Z" fill="#455A64"/>
<path d="M414.23 228.94C414.157 228.94 414.23 227.857 413.878 225.951C413.471 223.278 412.428 220.745 410.838 218.571C409.757 217.08 408.257 215.952 406.533 215.336C405.576 215.025 404.564 214.928 403.566 215.053C402.514 215.212 401.507 215.593 400.611 216.172C398.703 217.517 397.227 219.399 396.367 221.584C395.406 223.923 394.914 226.432 394.92 228.964C394.908 231.498 395.4 234.008 396.367 236.344C397.227 238.53 398.703 240.412 400.611 241.756C401.507 242.336 402.514 242.717 403.566 242.876C404.564 243.001 405.576 242.904 406.533 242.593C408.257 241.977 409.757 240.849 410.838 239.358C412.428 237.184 413.471 234.651 413.878 231.978C414.182 230.071 414.157 228.989 414.23 229.001C414.247 229.259 414.247 229.518 414.23 229.776C414.229 230.525 414.18 231.273 414.085 232.015C413.762 234.774 412.754 237.406 411.154 239.665C410.04 241.259 408.47 242.47 406.655 243.134C405.631 243.486 404.543 243.604 403.469 243.478C402.329 243.3 401.24 242.881 400.271 242.248C398.249 240.861 396.683 238.895 395.772 236.603C394.769 234.182 394.252 231.583 394.252 228.958C394.252 226.333 394.769 223.735 395.772 221.314C396.683 219.021 398.249 217.056 400.271 215.668C401.236 215.038 402.322 214.619 403.457 214.438C404.535 214.313 405.627 214.431 406.655 214.783C408.47 215.447 410.04 216.657 411.154 218.251C412.754 220.51 413.762 223.142 414.085 225.902C414.18 226.644 414.229 227.392 414.23 228.14C414.247 228.407 414.247 228.674 414.23 228.94Z" fill="#263238"/>
<path d="M405.098 239.198C408.993 239.198 412.151 234.605 412.151 228.94C412.151 223.274 408.993 218.682 405.098 218.682C401.203 218.682 398.045 223.274 398.045 228.94C398.045 234.605 401.203 239.198 405.098 239.198Z" fill="#455A64"/>
<path d="M412.151 228.94C412.09 228.94 412.09 228.165 411.871 226.8C411.558 224.88 410.8 223.064 409.658 221.498C408.889 220.437 407.821 219.635 406.594 219.198C405.895 218.972 405.155 218.909 404.428 219.013C403.702 219.118 403.008 219.387 402.399 219.801C399.76 221.56 398.362 225.25 398.349 228.928C398.337 232.605 399.76 236.308 402.399 238.066C403.008 238.481 403.702 238.75 404.428 238.854C405.155 238.959 405.895 238.895 406.594 238.669C407.821 238.232 408.889 237.431 409.658 236.369C410.8 234.804 411.558 232.987 411.871 231.068C412.09 229.702 412.09 228.928 412.151 228.94C412.18 229.123 412.18 229.31 412.151 229.493C412.157 230.032 412.129 230.57 412.066 231.105C411.847 233.104 411.127 235.013 409.974 236.652C409.154 237.786 408.014 238.643 406.703 239.112C405.957 239.366 405.164 239.454 404.381 239.37C403.551 239.254 402.755 238.961 402.046 238.509C400.574 237.501 399.435 236.07 398.775 234.401C398.043 232.65 397.666 230.768 397.666 228.866C397.666 226.965 398.043 225.083 398.775 223.331C399.435 221.662 400.574 220.231 402.046 219.223C402.755 218.771 403.551 218.478 404.381 218.362C405.164 218.278 405.957 218.366 406.703 218.62C408.014 219.089 409.154 219.946 409.974 221.08C411.127 222.719 411.847 224.628 412.066 226.627C412.129 227.162 412.157 227.7 412.151 228.239C412.195 228.47 412.195 228.708 412.151 228.94Z" fill="#263238"/>
</g>
<defs>
<filter id="filter0_d_3_207" x="-4" y="0" width="616" height="623" filterUnits="userSpaceOnUse" color-interpolation-filters="sRGB">
<feFlood flood-opacity="0" result="BackgroundImageFix"/>
<feColorMatrix in="SourceAlpha" type="matrix" values="0 0 0 0 0 0 0 0 0 0 0 0 0 0 0 0 0 0 127 0" result="hardAlpha"/>
<feOffset dy="4"/>
<feGaussianBlur stdDeviation="2"/>
<feComposite in2="hardAlpha" operator="out"/>
<feColorMatrix type="matrix" values="0 0 0 0 0 0 0 0 0 0 0 0 0 0 0 0 0 0 0.25 0"/>
<feBlend mode="normal" in2="BackgroundImageFix" result="effect1_dropShadow_3_207"/>
<feBlend mode="normal" in="SourceGraphic" in2="effect1_dropShadow_3_207" result="shape"/>
</filter>
</defs>
</svg>
